<svg style="position:absolute;left:0px;top:0px;height:410px;width:1210px" >
<image href="./images/cutedolphin.png" x="50" y="150" height="250" />
<path stroke="blue" stroke-width="5" fill="none" d="M  51,292 L 59,284 74,276 82,264 79,251 75,232 80,214 89,196 109,183 135,179 167,183 202,189 224,194 244,199 266,202 287,206 301,202 325,190 341,183 365,172 385,163 404,158 418,153 427,152 435,152 440,155 431,163 417,172 404,181 395,189 388,198 380,209 376,216 374,225 395,234 416,238 441,244 468,254 504,264 521,270 536,268 556,256 576,246 599,238 612,234 619,234 613,242 610,250 602,255 596,260 592,282 584,293 592,303 600,314 604,329 603,340 613,350" />
</svg>
