<svg
   xmlns="http://www.w3.org/2000/svg"
   xmlns:sodipodi="http://sodipodi.sourceforge.net/DTD/sodipodi-0.dtd"
   xmlns:inkscape="http://www.inkscape.org/namespaces/inkscape"
   id="svg3336"
   version="1.1"
   width="100%"
   height="100%"
   viewbox="0 0 1366 633">
  <defs
     id="defs3344" />
  <path
     d="m 1362,316  q -100,-100 -200,0 -100,100 -200,0 -100,-100 -200,0 -100,100 -200,0 -100,-100 -200,0 -100,100 -200,0 -100,-100 -200,0 -100,100 -200,0 -100,-100 -200,0 -100,100 -200,0 "
     id="path3338"
     style="fill:none;stroke:none;stroke-width:3" />
  <path
     d="m 0,0 q 0.6,0.8 -2.8,2.4 -2.4,0.8 -3.2,3.2 -0.8,1.4 0.8,4.4 0.7,5.6 -1.4,8 -1.2,2.3 -4,3.4 -3.4,1.5 -5.2,1 -2.1,1 -5.4,0.4 -3.5,-0.4 -10.6,-2.4 -4.2,-1.4 -7.6,-2 -5.8,-1.2 -6,-0.8 -3.8,0.2 -8.4,2 -3.2,1.4 -8.8,4.4 -6,2 -8,2.4 -3.1,1.3 -6.6,1.4 -0.8,0.7 0,-2.2 1.8,0.7 3.6,-2.2 3.9,-2.7 5.8,-5 2.7,-3 2.6,-5.2 -1.5,-1.9 -5.8,-2.6 -3.5,-0.1 -6.6,-1.4 -4,-1 -5.6,-2 -4,-0.7 -8,-2.6 -3.3,-1.2 -6.2,0 -4,1.9 -8,4.2 -3.8,2.1 -6,2.2 -3.5,1.1 -2.6,0.2 0.6,-1.8 2,-2.8 -1.2,-0.7 2.4,-1.8 1,-1 1.2,-4.4 1.9,-0.6 1.8,-2.8 -1.1,-1.4 -2.6,-3.6 -1.2,-1.3 -0.8,-2.2 -0.3,0 -1.8,-4 -2,-1.2 -2.4,-2.4 -1.6,-0.9 -1.6,-1.4 -1.3,0.2 0.2,-2.8 3.1,1.4 7.4,2.8 3.2,2.1 5.6,3 0.9,1.4 1.4,2.8 1.6,2.5 2.4,3.8 3.5,-1.2 9.8,-1.6 7.2,0.3 4.8,0.2 8.6,-0.1 10.8,-0.6 2.6,-0.8 5.2,-1.6 3,-1.1 7.6,-2.6 3.4,-0.7 6.8,-0.2 3.9,-1.2 2.6,-0.8 3.2,0.6 4.8,0.4 1.9,0.7 0.2,-1.4 0.2,-0.2 -2,-2 -1.9,-0.1 -3.4,-2.2 2.3,-1.6 5.8,0 3.5,1.1 6.6,2.6 1.8,1.8 4.4,2.8 1,-1.8 -0.4,-4.4 -0.3,-1.4 -2.6,-3.6 -3.2,-2 -0.8,-1.6 1.4,0 2.8,0 2.6,1.8 4.4,3.6 1.8,2.9 3.6,5.4 1.4,3.1 2.8,5.8 2.1,2.1 4.6,1.4 2.9,-0.2 8.6,-0.4 4.2,0.3 6,0.2 1.9,0.9 3.4,2.2 2,2.8 0,0 2.3,2.6 2.6,3.6 z"
     id="path3340"
     style="fill:none;stroke:#ff0000;stroke-width:3">
    <animateMotion
       path="m 1362,316  q -100,-100 -200,0 -100,100 -200,0 -100,-100 -200,0 -100,100 -200,0 -100,-100 -200,0 -100,100 -200,0 -100,-100 -200,0 -100,100 -200,0 -100,-100 -200,0 -100,100 -200,0"
       begin="0s"
       dur="10s"
       repeatCount="indefinite"
       rotate="auto" />
   </path>
  <path
     d="m 1362,315  L 0,315 0,633 1362,633 z "
     id="path3338"
     style="fill:#0000ff;stroke:#0000ff;stroke-width:3" />
</svg>
